<?xml version="1.0" encoding="UTF-8"?>
<svg version="1.1" xmlns="http://www.w3.org/2000/svg" width="800" height="800">
<path d="M0 0 C5.28330328 2.75471844 7.50982431 6.02261055 9.875 11.3125 C10.55260925 12.74837842 11.23235255 14.18325142 11.9140625 15.6171875 C12.42694824 16.70918457 12.42694824 16.70918457 12.95019531 17.82324219 C14.91525576 21.89777217 17.10413411 25.85322112 19.28295898 29.81640625 C21.14790491 33.25001123 22.63854447 36.6331056 23.9375 40.3125 C25.05565614 43.02875144 25.51327056 43.78594098 28.23828125 44.984375 C30.51209163 45.50774038 32.67418667 45.84593972 35 46 C35.37318359 45.17628906 35.37318359 45.17628906 35.75390625 44.3359375 C37.2442609 41.54210653 39.02484305 39.14984552 40.9375 36.625 C41.52096191 35.85422119 41.52096191 35.85422119 42.11621094 35.06787109 C61.70034797 9.30292486 61.70034797 9.30292486 66 8 C69.7642233 7.50901435 71.68296283 7.84782216 75.125 9.5 C81.77092735 15.27906726 83.35550597 24.16912788 85.5 32.375 C87.54920017 40.16008922 89.85399516 47.58742879 93 55 C93.44182617 56.33683838 93.44182617 56.33683838 93.89257812 57.70068359 C94.87887508 60.43409681 94.87887508 60.43409681 98.625 61.3125 C99.73875 61.539375 100.8525 61.76625 102 62 C103.06734375 60.90365234 103.06734375 60.90365234 104.15625 59.78515625 C106.83480302 57.1617932 109.58471876 54.79183527 112.5 52.4375 C113.87671875 51.32181641 113.87671875 51.32181641 115.28125 50.18359375 C117.07948339 48.73932297 118.88410491 47.30296656 120.6953125 45.875 C123.09442206 43.99670358 123.09442206 43.99670358 125.375 41.5625 C133.37289522 33.75503085 133.37289522 33.75503085 139.0625 33.375 C142.71747009 33.95515398 145.02698452 34.49039674 147.7019043 37.10864258 C154.72807236 47.34594256 154.51845298 62.89279286 155.70629883 74.82519531 C155.9706501 77.43030008 156.26283369 80.03111452 156.55859375 82.6328125 C156.629608 83.42962433 156.70062225 84.22643616 156.77378845 85.0473938 C157.212486 88.77982167 157.49222126 90.57915752 160.44555664 93.02685547 C163.6418839 94.24453304 164.77233462 94.12592978 168 93 C170.10466027 91.99236342 172.17489709 90.94427136 174.23046875 89.83984375 C176 89 176 89 178 89 C178 88.34 178 87.68 178 87 C181.29583349 85.13547157 184.61389749 83.31449527 187.9375 81.5 C188.86369141 80.97535156 189.78988281 80.45070313 190.74414062 79.91015625 C196.50094596 76.79946144 201.39077336 74.72776073 208 76 C211.9379243 78.31139035 213.97070437 80.95533247 216 85 C216.35644531 88.09594727 216.35644531 88.09594727 216.328125 91.56640625 C216.32321045 92.84789551 216.3182959 94.12938477 216.31323242 95.44970703 C216.29225903 96.82063962 216.27117958 98.19157058 216.25 99.5625 C216.24145235 100.96207031 216.2340529 102.3616481 216.2277832 103.76123047 C216.18371438 109.95835753 216.04154194 116.13309256 215.58984375 122.31640625 C215.52442383 123.22769287 215.45900391 124.13897949 215.39160156 125.07788086 C215.25936756 126.72811691 215.10266494 128.37664782 214.91699219 130.02172852 C214.59333826 133.84753826 214.89025701 135.81456426 216.86328125 139.1484375 C220.28888354 141.17052403 220.79213457 141.22270642 224.4921875 140.5390625 C226.33623807 140.05601554 228.17186695 139.5401726 230 139 C231.02770508 138.7225293 232.05541016 138.44505859 233.11425781 138.15917969 C237.60208542 136.94302802 242.07491548 135.67742434 246.54296875 134.390625 C260.901973 130.39361563 260.901973 130.39361563 267.375 133.75 C270.62835318 136.53858844 271.81684418 138.36924939 272.29638672 142.63891602 C272.31978466 151.24316328 271.16912567 159.33453437 269.54638672 167.75024414 C269.12124616 169.95698476 268.71360705 172.16643828 268.30859375 174.37695312 C266.30938953 185.09217352 266.30938953 185.09217352 264.88232422 189.27954102 C263.89537414 192.32259156 264.10860661 193.96926248 265 197 C265.66 197 266.32 197 267 197 C267.33 198.32 267.66 199.64 268 201 C268.84175781 200.9278125 269.68351563 200.855625 270.55078125 200.78125 C279.73200574 200.09480331 288.92003923 199.7782821 298.125 199.625 C299.29844971 199.58697266 300.47189941 199.54894531 301.6809082 199.50976562 C311.06075804 199.41787918 311.06075804 199.41787918 314.71875 202.3828125 C318.62981585 206.86982298 319.36060978 210.33302495 319.3125 216.30224609 C318.68304717 221.73619439 316.38116854 226.66452904 314.3125 231.6875 C313.3951584 233.99973234 312.47848567 236.31223017 311.5625 238.625 C310.70892148 240.75023632 309.85481204 242.87525953 309 245 C307.91231587 247.72137702 306.85201819 250.44695204 305.8125 253.1875 C305.42707031 254.17105469 305.04164063 255.15460938 304.64453125 256.16796875 C303.83694626 259.71644824 304.30671597 262.45005166 305 266 C305.185625 266.969375 305.37125 267.93875 305.5625 268.9375 C305.706875 269.618125 305.85125 270.29875 306 271 C306.84353027 271.06803833 306.84353027 271.06803833 307.70410156 271.13745117 C315.12789889 271.80172482 322.4174749 272.99136048 329.75 274.3125 C331.53857422 274.61317383 331.53857422 274.61317383 333.36328125 274.91992188 C341.06865384 276.31033268 345.61041528 277.79363608 351.3125 283.1875 C353.91045928 287.51743214 354.57476372 292.31930199 353.51171875 297.27734375 C353.34285156 297.84582031 353.17398438 298.41429687 353 299 C352.34 299 351.68 299 351 299 C350.74734375 299.84949219 350.4946875 300.69898438 350.234375 301.57421875 C348.91774634 305.22827993 347.20604057 308.476241 345.25 311.8125 C344.89583008 312.42488525 344.54166016 313.03727051 344.17675781 313.66821289 C342.13617523 317.16379158 340.01189199 320.57928281 337.75 323.9375 C337.27820313 324.63875 336.80640625 325.34 336.3203125 326.0625 C335.4757346 327.30188059 334.61752018 328.53214583 333.7421875 329.75 C330.42731713 334.75707692 330.58241627 339.23502459 331 345 C331.61617187 345.28617187 332.23234375 345.57234375 332.8671875 345.8671875 C335.15935286 347.08463797 336.62226563 348.59920442 338.40234375 350.4609375 C340.39003372 352.37572931 342.5172149 354.04501859 344.6875 355.75 C348.18944919 358.50817237 351.53515333 361.35386285 354.8125 364.375 C359.16296699 368.35374987 363.71634669 371.95274954 368.4465332 375.46240234 C371.9296403 378.07135389 374.94661711 380.90740834 378 384 C379.68956288 385.41849594 381.39858283 386.81409649 383.125 388.1875 C384.07246094 388.98542969 385.01992188 389.78335937 385.99609375 390.60546875 C388.93556697 393.05128419 388.93556697 393.05128419 392.16015625 394.92578125 C396.60861698 397.97369434 399.39213711 400.34257343 400.6015625 405.62988281 C402.37247753 420.112765 399.94126476 431.89502772 392 444 C391.67 444.66 391.34 445.32 391 446 C390.34 446 389.68 446 389 446 C388.75378906 446.83660156 388.50757813 447.67320312 388.25390625 448.53515625 C386.83901396 452.44484305 385.00903259 455.84634271 382.9375 459.4375 C382.54046875 460.13415771 382.1434375 460.83081543 381.734375 461.54858398 C377.96548719 468.13001918 374.06939181 474.63375758 370.13818359 481.11914062 C368.18647035 484.3443656 366.25047304 487.57900749 364.3125 490.8125 C363.56385205 492.05992582 362.81515564 493.30732256 362.06640625 494.5546875 C360.8013759 496.66287826 359.53850397 498.77229949 358.27734375 500.8828125 C357.77332031 501.72585938 357.26929688 502.56890625 356.75 503.4375 C356.33234375 504.13746094 355.9146875 504.83742188 355.484375 505.55859375 C354.22337385 507.6326088 352.9445932 509.69294536 351.65625 511.75 C348.99246002 516.00364679 346.36590466 520.27927404 343.75 524.5625 C343.27546387 525.33899902 342.80092773 526.11549805 342.31201172 526.91552734 C338.87223953 532.55187756 335.46073847 538.20460827 332.08105469 543.87719727 C329.04044941 548.97057832 325.89053813 553.99292201 322.73339844 559.01464844 C317.40095233 567.52126674 312.31346468 576.08608107 307.6875 585 C302.11587025 595.72853571 302.11587025 595.72853571 299.5625 600.1875 C299.13066406 600.94417969 298.69882812 601.70085938 298.25390625 602.48046875 C297.84011719 602.98191406 297.42632813 603.48335937 297 604 C296.01 604 295.02 604 294 604 C292.87077079 588.34135499 296.5105506 572.93685968 301 558 C301.66 558 302.32 558 303 558 C303.16628906 556.515 303.16628906 556.515 303.3359375 555 C303.94034245 550.80496635 305.18900176 546.97653959 306.625 543 C306.89078857 542.25218262 307.15657715 541.50436523 307.43041992 540.73388672 C309.13635979 536.04937682 311.09725796 531.59679396 313.3125 527.125 C318.34927541 516.92891378 321.46548807 505.95299401 324.95043945 495.15820312 C325.93997343 492.18062427 326.99517722 489.23864591 328.0859375 486.296875 C329.94286436 481.25671025 331.49535389 476.17247077 332.9375 471 C333.18910889 470.1020874 333.44071777 469.2041748 333.69995117 468.27905273 C334.21667184 466.42740266 334.73108611 464.57510737 335.24316406 462.72216797 C335.96832582 460.11392488 336.713205 457.51200156 337.4609375 454.91015625 C341.54187472 441.16595744 341.54187472 441.16595744 342 427 C340.12069561 424.14473556 340.12069561 424.14473556 338 422 C337.52691406 422.98097656 337.05382812 423.96195312 336.56640625 424.97265625 C332.75456273 432.78366706 328.71581585 440.33427999 324.16650391 447.74072266 C321.14163653 452.68652031 318.4594895 457.74732141 316 463 C315.34 463 314.68 463 314 463 C313.76796875 463.81855469 313.5359375 464.63710938 313.296875 465.48046875 C311.72400676 469.74900576 309.59007767 473.42575971 307.25 477.3125 C306.80188965 478.066521 306.3537793 478.82054199 305.89208984 479.59741211 C303.14202225 484.19491775 300.26687252 488.67557608 297.23046875 493.08984375 C295.57601437 495.65818722 294.30270855 498.36001584 292.98828125 501.11328125 C292.00220542 502.99578966 290.89688609 504.61261415 289.625 506.3125 C286.90786763 509.97938989 284.81383398 513.88872759 282.66796875 517.91015625 C280.50865772 521.91019144 278.24352632 525.84675619 275.97045898 529.78271484 C273.32145189 534.38653278 270.83387116 539.06119981 268.421875 543.79296875 C266.88802587 546.173806 265.35299273 547.45647699 263 549 C262.67 548.67 262.34 548.34 262 548 C262.015625 546.03125 262.015625 546.03125 262.25 543.5 C262.35054687 542.27796875 262.35054687 542.27796875 262.453125 541.03125 C263.04519353 537.74949871 264.01550991 534.78618262 265.10400391 531.640625 C266.11984199 528.64680901 267.05040669 525.63331942 267.97265625 522.609375 C268.31490234 521.48789062 268.65714844 520.36640625 269.00976562 519.2109375 C269.71626964 516.88825638 270.42198869 514.56533636 271.12695312 512.2421875 C271.63838867 510.56769531 271.63838867 510.56769531 272.16015625 508.859375 C272.46574463 507.85358398 272.77133301 506.84779297 273.08618164 505.81152344 C273.95023011 503.15312583 274.92940945 500.58123073 276 498 C276.66 498 277.32 498 278 498 C278.10570312 497.32453125 278.21140625 496.6490625 278.3203125 495.953125 C279.1411124 492.38689094 280.47210512 489.11601187 281.875 485.75 C284.13651671 480.22327492 286.20058916 474.69813431 288 469 C288.66 469 289.32 469 290 469 C290.23847656 467.79472656 290.47695313 466.58945312 290.72265625 465.34765625 C292.15833219 458.8940593 294.31609974 452.69203228 296.4375 446.4375 C296.83259766 445.25736328 297.22769531 444.07722656 297.63476562 442.86132812 C299.65191123 436.86359236 301.74425419 430.91184759 304 425 C304.33 424.01 304.66 423.02 305 422 C304.59652344 422.38929688 304.19304688 422.77859375 303.77734375 423.1796875 C298.17782424 428.33932968 292.04367889 432.43037514 285.68359375 436.5703125 C285.07499512 436.9725 284.46639648 437.3746875 283.83935547 437.7890625 C282.60783277 438.59983402 281.36703974 439.39668793 280.11767578 440.1796875 C275.67931722 443.09365379 273.47690505 445.94565831 271 450.75 C266.59498746 458.96426079 261.14026988 465.82060552 254.9453125 472.765625 C253.03064476 474.9648016 251.18998976 477.21601982 249.3527832 479.47998047 C245.55004136 484.14400557 241.69971389 488.45753633 237.046875 492.30078125 C234.70281688 494.24670736 232.48617831 496.30617899 230.25 498.375 C224.77906168 503.3089137 218.96630751 507.68614517 213 512 C212.16597656 512.60714844 211.33195313 513.21429687 210.47265625 513.83984375 C201.70533243 520.10627779 192.58767511 525.70657684 183 530.625 C177.03907726 533.78500724 173.95457299 536.49544493 170.66015625 542.40234375 C168.88634704 545.17783346 166.95148803 547.1774287 164.5625 549.4375 C161.97879937 551.95058502 159.93048711 554.10532255 157.9375 557.125 C155.70586401 560.43645986 153.16814543 562.6053781 150.125 565.15625 C148.03761043 566.96736742 146.15503576 568.87471245 144.25 570.875 C139.35221254 575.85083985 133.81083619 580.13802887 128 584 C127.34 584 126.68 584 126 584 C125.67 584.99 125.34 585.98 125 587 C122.975908 588.38142778 121.01639011 589.57860452 118.875 590.75 C118.25044922 591.09635498 117.62589844 591.44270996 116.98242188 591.79956055 C114.99770937 592.88516662 113.00229821 593.94721012 111 595 C110.05688965 595.49717529 110.05688965 595.49717529 109.09472656 596.00439453 C90.15791809 605.81926416 67.1973479 608.99833213 46.52734375 602.46484375 C36.69974551 598.38361525 27.10398429 592.92215325 19 586 C19 585.34 19 584.68 19 584 C18.41734375 583.74089844 17.8346875 583.48179687 17.234375 583.21484375 C14.83656162 581.91113752 13.18243206 580.48254467 11.25 578.5625 C10.63640625 577.96566406 10.0228125 577.36882813 9.390625 576.75390625 C8 575 8 575 8 572 C9.14597656 571.95101562 10.29195313 571.90203125 11.47265625 571.8515625 C13.00262535 571.77647199 14.53257218 571.70092694 16.0625 571.625 C16.81466797 571.5940625 17.56683594 571.563125 18.34179688 571.53125 C23.17440393 571.28020548 27.35503964 570.45786843 32 569 C34.49905141 568.41261612 36.99910312 567.82947611 39.5 567.25 C52.10069643 564.17015707 63.35851281 559.54293651 74 552 C74.9178125 551.37867188 75.835625 550.75734375 76.78125 550.1171875 C89.98542185 540.78197998 101.904203 529.06112111 110 515 C107.36 514.34 104.72 513.68 102 513 C102 512.34 102 511.68 102 511 C100.9171875 510.87625 99.834375 510.7525 98.71875 510.625 C92.26806848 509.81866481 85.88554852 508.60597366 79.48828125 507.4609375 C69.03058614 505.6097735 59.13237968 504.77504062 48.5 504.75 C47.83380646 504.74832825 47.16761292 504.74665649 46.48123169 504.74493408 C35.54249106 504.7432879 24.56699789 504.92964978 14.28515625 509.1015625 C12 510 12 510 9 510 C10.11756266 506.13151386 11.02873292 503.71077243 14 501 C4.57130123 499.67631659 -4.55656618 500.28039484 -14 501 C-13.175 501.928125 -12.35 502.85625 -11.5 503.8125 C-9 506.625 -9 506.625 -9 510 C-10.35532837 510.08302368 -10.35532837 510.08302368 -11.73803711 510.16772461 C-15.07976107 510.37463117 -18.42116964 510.58567294 -21.76245117 510.79956055 C-23.21058841 510.89139998 -24.65883225 510.98157375 -26.10717773 511.07006836 C-28.18503399 511.19731306 -30.26243733 511.33047881 -32.33984375 511.46484375 C-33.59144287 511.543396 -34.84304199 511.62194824 -36.13256836 511.70288086 C-38.89470765 511.6845537 -38.89470765 511.6845537 -40 513 C-42.11959205 513.25445031 -44.24674663 513.4460897 -46.375 513.61328125 C-47.75180758 513.72586388 -49.12859713 513.83866717 -50.50537109 513.95166016 C-51.23778015 514.01025208 -51.97018921 514.06884399 -52.72479248 514.12921143 C-65.97502795 515.19663791 -79.18026374 516.51069119 -92.375 518.125 C-93.0870459 518.21117584 -93.7990918 518.29735168 -94.53271484 518.38613892 C-102.84137031 519.27977153 -102.84137031 519.27977153 -111 521 C-104.84554419 526.87084034 -98.5095323 531.96572874 -91.47216797 536.72412109 C-89.94888992 537.770187 -88.46961269 538.8797909 -87 540 C-87 540.66 -87 541.32 -87 542 C-86.35289062 542.23589844 -85.70578125 542.47179687 -85.0390625 542.71484375 C-81.01208034 544.41777065 -77.21964866 546.48599607 -73.375 548.5625 C-71.86313502 549.3784474 -70.35015744 550.19233749 -68.8359375 551.00390625 C-67.83892822 551.54253296 -67.83892822 551.54253296 -66.82177734 552.09204102 C-64.85013332 553.12781491 -64.85013332 553.12781491 -62 554 C-62 554.66 -62 555.32 -62 556 C-59.00486896 557.01620518 -56.00398059 558.01040744 -53 559 C-51.824375 559.39832031 -50.64875 559.79664063 -49.4375 560.20703125 C-39.73600135 563.42371502 -30.09836111 565.46274948 -20 567 C-19.26953125 568.60546875 -19.26953125 568.60546875 -19 571 C-20.51171875 573.98828125 -20.51171875 573.98828125 -22.6875 577.3125 C-26.03000592 582.45252841 -26.03000592 582.45252841 -29 587.8125 C-31.74834113 592.19266867 -35.27617094 595.44919734 -39 599 C-39.78375 599.86625 -40.5675 600.7325 -41.375 601.625 C-45.22738845 605.11049431 -49.41566505 607.58196205 -54 610 C-54.78890625 610.41894531 -55.5778125 610.83789062 -56.390625 611.26953125 C-67.69390404 616.29913498 -82.06111155 615.8018073 -93.5 611.4375 C-96.04661177 610.37800896 -98.52788684 609.22229969 -101 608 C-102.56621094 607.24009766 -102.56621094 607.24009766 -104.1640625 606.46484375 C-114.71753297 600.79827056 -123.63619692 592.48443486 -132 584 C-132.90878906 583.11441406 -133.81757813 582.22882812 -134.75390625 581.31640625 C-135.68074219 580.40761719 -136.60757812 579.49882813 -137.5625 578.5625 C-138.49191406 577.65628906 -139.42132813 576.75007812 -140.37890625 575.81640625 C-142.97076973 573.03140839 -144.92864756 570.18146124 -147 567 C-148.26189905 565.53629928 -149.55297415 564.09712998 -150.875 562.6875 C-161 551.50070225 -161 551.50070225 -161 547 C-161.66 547 -162.32 547 -163 547 C-163.66 545.35 -164.32 543.7 -165 542 C-166.32 542 -167.64 542 -169 542 C-169 541.34 -169 540.68 -169 540 C-169.82113281 539.91621094 -170.64226562 539.83242188 -171.48828125 539.74609375 C-175.82583198 538.82454515 -179.29318433 537.13672722 -183.1875 535.0625 C-183.93636475 534.66498535 -184.68522949 534.2674707 -185.45678711 533.85791016 C-192.2798521 530.09300498 -197.4745693 525.49766472 -203 520 C-204.28281767 518.90620262 -205.57396996 517.8220703 -206.875 516.75 C-217.5741369 507.38279647 -226.37561378 496.31352358 -234.67480469 484.83056641 C-235.88892999 483.15342722 -237.11944822 481.48818704 -238.3515625 479.82421875 C-241.22228798 475.93744998 -244.0266821 472.05206904 -246.5625 467.9375 C-248.46522455 464.85114078 -250.38103364 461.77852983 -252.375 458.75 C-252.89835938 457.94046875 -253.42171875 457.1309375 -253.9609375 456.296875 C-256.56843269 453.35969651 -259.55074573 451.75459831 -263 450 C-263.67998047 449.64534668 -264.35996094 449.29069336 -265.06054688 448.92529297 C-267.95738132 447.41779732 -270.85839463 445.91922182 -273.77148438 444.44335938 C-278.36352644 442.05847344 -282.14306235 439.45479249 -286 436 C-286 437.65 -286 439.3 -286 441 C-285.34 441 -284.68 441 -284 441 C-283.8047876 441.53665283 -283.6095752 442.07330566 -283.40844727 442.6262207 C-277.24833094 459.44910726 -269.83522143 475.38079295 -261.80859375 491.37548828 C-252.89110546 509.17033615 -244.69661932 527.14052232 -242 547 C-245.36667893 546.44008325 -246.69957981 545.63301539 -248.6875 542.875 C-251.94131724 538.31801666 -254.70552629 533.47798739 -257.53076172 528.64990234 C-260.41187319 523.79795063 -263.66547096 519.46538969 -267.29296875 515.13671875 C-268.80492762 513.24417527 -269.98377645 511.43996612 -271.125 509.3125 C-272.64299706 506.6307052 -273.98569516 504.75982956 -276 502.5 C-278.40873533 499.79693042 -280.16295989 497.06252095 -281.88671875 493.86328125 C-283.18297605 491.69375587 -284.67343752 489.78765164 -286.25 487.8125 C-289.76403472 483.39935191 -292.85352404 478.77516923 -295.94921875 474.0625 C-298.60306205 470.09942735 -301.41500762 466.26407425 -304.234375 462.41796875 C-310 454.52212389 -310 454.52212389 -310 452 C-310.66 451.67 -311.32 451.34 -312 451 C-316.18493741 445.68713236 -319.68877366 439.98446237 -322.875 434.03125 C-323.8818101 432.21339844 -325.02717149 430.47391665 -326.1875 428.75 C-327.86229507 426.20893162 -328.99063743 423.85986063 -330 421 C-331.4540625 422.175625 -331.4540625 422.175625 -332.9375 423.375 C-333.48277344 423.81585938 -334.02804687 424.25671875 -334.58984375 424.7109375 C-336.13266437 425.9666391 -336.13266437 425.9666391 -337 428 C-336.77289209 440.94515066 -330.31226713 453.7026034 -325.1015625 465.33984375 C-324 468 -324 468 -324 470 C-323.34 470 -322.68 470 -322 470 C-321.70867187 470.65371582 -321.41734375 471.30743164 -321.1171875 471.98095703 C-315.58607545 484.3455145 -309.93730898 496.36571567 -303 508 C-302.03333131 509.78718322 -301.0747118 511.57874843 -300.125 513.375 C-295.4809872 521.956328 -290.10905296 530.1321762 -284.859375 538.3515625 C-274.88725692 554.17346638 -267.6962543 570.90949239 -261.625 588.5625 C-261.36187012 589.31257324 -261.09874023 590.06264648 -260.82763672 590.83544922 C-259.42271482 595.03131885 -258.70228279 598.5129764 -259 603 C-262.66535305 602.76926734 -263.90552656 602.09232631 -266.578125 599.48046875 C-267.48211856 598.39379595 -268.37206891 597.29533534 -269.25 596.1875 C-269.72888672 595.60291016 -270.20777344 595.01832031 -270.70117188 594.41601562 C-274.50103169 589.73810055 -278.09265992 584.90941816 -281.66796875 580.05859375 C-285.11892412 575.53246635 -288.81110868 571.22570995 -292.51953125 566.91015625 C-294.10225621 565.05325846 -295.65882334 563.1735191 -297.1796875 561.265625 C-298.99887883 558.91760519 -298.99887883 558.91760519 -301.3125 556.6875 C-304.05094802 553.94905198 -306.57855612 551.09698079 -309.11328125 548.171875 C-311.05866639 545.93246685 -313.02616707 543.71435802 -315 541.5 C-320.03304416 535.84143409 -325.02933121 530.16284699 -329.90209961 524.36499023 C-334.72904133 518.62396262 -339.65908756 513.01543597 -344.7265625 507.484375 C-350.10516079 501.60673151 -355.19762249 495.57412032 -360.10546875 489.296875 C-361.94667239 486.98937079 -361.94667239 486.98937079 -363.98828125 485.015625 C-366.94877462 482.0493831 -369.42454101 478.73730684 -372 475.4375 C-373.88755635 473.13704069 -375.89386225 471.09782951 -378 469 C-379.25516844 467.50055447 -380.48480363 465.97935153 -381.6875 464.4375 C-382.59048828 463.29087891 -382.59048828 463.29087891 -383.51171875 462.12109375 C-385 460 -385 460 -386 457 C-386.99 456.67 -387.98 456.34 -389 456 C-390.5 454.109375 -390.5 454.109375 -392 451.75 C-392.495 450.98171875 -392.99 450.2134375 -393.5 449.421875 C-393.995 448.62265625 -394.49 447.8234375 -395 447 C-395.51481934 446.25943359 -396.02963867 445.51886719 -396.56005859 444.75585938 C-399.30267846 439.50684394 -398.59623013 433.55576003 -398.625 427.75 C-398.67011719 426.46480469 -398.71523438 425.17960937 -398.76171875 423.85546875 C-398.82600905 414.90074799 -397.22527913 410.35852135 -391 404 C-390.47100098 403.26104492 -389.94200195 402.52208984 -389.39697266 401.76074219 C-388.93597168 401.17969727 -388.4749707 400.59865234 -388 400 C-387.34 400 -386.68 400 -386 400 C-385.731875 399.42378906 -385.46375 398.84757812 -385.1875 398.25390625 C-383.97137559 395.94567012 -382.59121696 394.002104 -381 391.9375 C-379.24878722 389.65654536 -377.59742149 387.39613223 -376 385 C-375.34 385 -374.68 385 -374 385 C-373.73832031 384.43023437 -373.47664063 383.86046875 -373.20703125 383.2734375 C-371.9074522 380.82568666 -370.40640784 378.79745558 -368.6875 376.625 C-367.74583984 375.43390625 -367.74583984 375.43390625 -366.78515625 374.21875 C-365.02298866 372.02857234 -363.24152808 369.85637154 -361.4296875 367.70703125 C-358.72506753 364.47774456 -356.07119441 361.20662001 -353.41015625 357.94140625 C-351.80428086 355.98156157 -350.18705138 354.03096525 -348.55859375 352.08984375 C-347.77613281 351.15269531 -346.99367188 350.21554687 -346.1875 349.25 C-345.47980469 348.40953125 -344.77210938 347.5690625 -344.04296875 346.703125 C-343.36878906 345.81109375 -342.69460938 344.9190625 -342 344 C-341.57122559 343.47446533 -341.14245117 342.94893066 -340.70068359 342.4074707 C-339.21750086 340.47940096 -339.21750086 340.47940096 -338 337 C-338.8239053 333.85238573 -340.45931959 331.37850858 -342.25 328.6875 C-343.13299934 327.27648233 -344.01334499 325.86379943 -344.890625 324.44921875 C-345.29313477 323.83393311 -345.69564453 323.21864746 -346.11035156 322.5847168 C-347 321 -347 321 -347 319 C-347.66 319 -348.32 319 -349 319 C-351.35797938 315.89739555 -353.13745052 312.41537163 -355 309 C-355.32822754 308.40574219 -355.65645508 307.81148438 -355.99462891 307.19921875 C-362.79703849 294.67682208 -362.79703849 294.67682208 -361.75 288.9375 C-360.27023179 284.8872066 -358.20089759 281.92255867 -355 279 C-347.89141566 275.77035848 -340.47066339 274.62385648 -332.8125 273.3125 C-331.55501953 273.08755859 -330.29753906 272.86261719 -329.00195312 272.63085938 C-318.87109211 270.85701516 -318.87109211 270.85701516 -314 271 C-313.32741333 268.66836622 -312.66152556 266.3347961 -312 264 C-311.77795898 263.34652588 -311.55591797 262.69305176 -311.32714844 262.01977539 C-310.90490805 259.41291366 -311.51953832 258.27426483 -312.703125 255.93359375 C-315.16148856 250.77039558 -316.97205168 245.49172844 -318.75 240.0625 C-319.06582031 239.11826172 -319.38164062 238.17402344 -319.70703125 237.20117188 C-322 230.26767113 -322 230.26767113 -322 228 C-322.66 228 -323.32 228 -324 228 C-326.39305827 220.8884257 -328.0978835 214.39439186 -326 207 C-324.12063651 203.24903899 -321.85672879 201.32191908 -317.88256836 199.82861328 C-313.39960275 198.87186391 -309.54659846 198.93325554 -305.00390625 199.2421875 C-303.75358864 199.31302048 -303.75358864 199.31302048 -302.47801208 199.38528442 C-299.83870874 199.53735987 -297.20076223 199.70590842 -294.5625 199.875 C-292.76373632 199.98156221 -290.96490817 200.08704202 -289.16601562 200.19140625 C-284.77649892 200.44842385 -280.38812168 200.72021085 -276 201 C-273.17466884 195.36120881 -271.74664136 191.46064527 -272 185 C-272.66 185 -273.32 185 -274 185 C-274.86584763 180.34299859 -275.71983436 175.68402454 -276.56347656 171.02294922 C-276.85133812 169.44164263 -277.14228507 167.86089417 -277.43652344 166.28076172 C-281.38964406 145.02265387 -281.38964406 145.02265387 -278.8125 137.5625 C-276.7044427 134.58214313 -275.39464252 133.35785701 -272 132 C-266.33846554 131.69951702 -261.58016482 132.37528359 -256.140625 134.00390625 C-255.42896179 134.20604233 -254.71729858 134.40817841 -253.98406982 134.61643982 C-251.73639987 135.25524267 -249.49291425 135.90720963 -247.25 136.5625 C-244.27914801 137.42928901 -241.30493681 138.28284471 -238.328125 139.12890625 C-237.31398529 139.4319442 -237.31398529 139.4319442 -236.27935791 139.74110413 C-232.87848241 140.70720429 -230.32536582 141.42970934 -227 140 C-224.16738908 137.84701727 -223.11406606 136.75137092 -222.57421875 133.1953125 C-222.61160156 132.18210938 -222.64898437 131.16890625 -222.6875 130.125 C-222.71199219 129.11695313 -222.73648438 128.10890625 -222.76171875 127.0703125 C-222.94323643 124.04547204 -222.94323643 124.04547204 -223.49780273 121.28051758 C-224.3825884 115.50080685 -224.3032637 109.66865477 -224.35009766 103.83276367 C-224.3666813 102.3208886 -224.3940037 100.80909269 -224.43212891 99.29760742 C-224.78689229 85.11478429 -224.78689229 85.11478429 -221.6640625 80.58984375 C-218.50985052 77.52350572 -216.40694708 75.69730696 -212.00390625 75.53125 C-205.85892746 75.67071051 -201.17696911 78.53206134 -195.9375 81.5 C-194.97650391 82.02464844 -194.01550781 82.54929687 -193.02539062 83.08984375 C-190.67382875 84.37676816 -188.33315148 85.68008282 -186 87 C-186 87.66 -186 88.32 -186 89 C-185.13375 89.268125 -184.2675 89.53625 -183.375 89.8125 C-180 91 -180 91 -176.9375 92.6875 C-173.61823571 94.17057553 -172.37765813 94.18674475 -169 93 C-165.73177742 91.3135912 -165.73177742 91.3135912 -165.32397461 88.14599609 C-165.18483643 86.95055176 -165.04569824 85.75510742 -164.90234375 84.5234375 C-164.82254776 83.87935944 -164.74275177 83.23528137 -164.66053772 82.57168579 C-164.40677981 80.50742653 -164.17121585 78.44161619 -163.9375 76.375 C-163.00812363 68.46266579 -162.0930883 60.70397207 -160 53 C-159.70838646 50.96119765 -159.43557292 48.91955699 -159.1875 46.875 C-158.31860406 41.42026439 -157.09638653 38.69673907 -153 35 C-149.40686987 33.80228996 -146.68559255 33.08361855 -143 34 C-136.49462296 37.73259338 -131.12402337 42.66003199 -125.97265625 48.0546875 C-123.19919442 50.78970531 -120.14753806 53.0701124 -117.01953125 55.3828125 C-115 57 -115 57 -112.5 60.0625 C-110.22250635 62.26749688 -110.22250635 62.26749688 -107.69921875 61.859375 C-105.40700202 61.36029204 -103.21858266 60.75886161 -101 60 C-100.855625 58.741875 -100.71125 57.48375 -100.5625 56.1875 C-100.26251314 53.57332877 -99.84186703 51.52560108 -99 49 C-98.34 49 -97.68 49 -97 49 C-96.87044922 47.42798828 -96.87044922 47.42798828 -96.73828125 45.82421875 C-95.95935448 39.6296365 -94.02365013 33.76082664 -92.1875 27.8125 C-91.84396484 26.65041016 -91.50042969 25.48832031 -91.14648438 24.29101562 C-90.80294922 23.17017578 -90.45941406 22.04933594 -90.10546875 20.89453125 C-89.79762451 19.88237549 -89.48978027 18.87021973 -89.17260742 17.82739258 C-87.60492371 14.04739152 -85.51785385 11.09913555 -82.1875 8.6875 C-78.09241136 7.40047214 -74.46336785 7.46462152 -70.4375 8.9375 C-67.43456687 11.47844342 -65.68295038 14.30360412 -63.59375 17.61328125 C-62.07389377 19.88934045 -60.46159245 21.85057424 -58.625 23.875 C-55.05546776 27.82443812 -51.97598823 32.05008581 -48.89453125 36.38671875 C-47.57646122 38.20484009 -46.19269594 39.97637297 -44.76171875 41.70703125 C-43 44 -43 44 -43 46 C-39.7721694 45.79093455 -36.97211397 45.30707472 -34 44 C-31.71925183 41.24742391 -30.53613051 38.18791204 -29.25 34.875 C-28.5518677 33.20363494 -27.84877059 31.53433468 -27.140625 29.8671875 C-26.62435547 28.63633423 -26.62435547 28.63633423 -26.09765625 27.38061523 C-24.70844639 24.36767364 -22.99315834 21.66712004 -21.18261719 18.89355469 C-18.6527813 14.84289261 -16.83051291 10.40854821 -14.84375 6.07421875 C-11.48265595 0.47002168 -6.41111935 -1.47235472 0 0 Z M186.44140625 477.14453125 C184.77948242 477.54188477 184.77948242 477.54188477 183.08398438 477.94726562 C181.92189453 478.23279297 180.75980469 478.51832031 179.5625 478.8125 C178.40427734 479.08642578 177.24605469 479.36035156 176.05273438 479.64257812 C169.71780178 481.07744514 169.71780178 481.07744514 164 484 C163.74984127 487.58357241 163.74984127 487.58357241 164 491 C176.5854131 488.53877497 184.65345758 485.92266295 194 477 C191.14644788 475.57322394 189.52118725 476.40658325 186.44140625 477.14453125 Z M-189 479 C-185.67831246 485.03943189 -180.76913531 489.27539646 -175 493 C-172.30992323 493.76312271 -172.30992323 493.76312271 -170 494 C-169.319375 492.906875 -168.63875 491.81375 -167.9375 490.6875 C-167.55464844 490.07261719 -167.17179687 489.45773437 -166.77734375 488.82421875 C-165.68887926 486.82866925 -165.68887926 486.82866925 -167 484 C-173.81698806 480.95670176 -181.45415765 478.51317146 -189 479 Z " fill="#F36000" transform="translate(400,86)"/>
<path d="M0 0 C12.72334095 9.31910257 20.25746909 22.26582426 23.18457031 37.65307617 C23.93432073 43.0148862 23.92272381 48.3678351 23.8984375 53.7734375 C23.89714844 54.96042236 23.89585937 56.14740723 23.89453125 57.37036133 C23.80249953 65.76538004 23.08847446 73.46467264 20.5859375 81.5234375 C19.9259375 81.5234375 19.2659375 81.5234375 18.5859375 81.5234375 C18.47378906 82.24789062 18.36164063 82.97234375 18.24609375 83.71875 C15.9255917 93.57745101 8.58948123 99.83218364 0.80078125 105.578125 C-2.7274311 107.71305787 -5.8648823 108.74514332 -9.8515625 109.7734375 C-11.73681641 110.27617187 -11.73681641 110.27617187 -13.66015625 110.7890625 C-24.19698688 112.85037796 -32.30458947 109.30558742 -41.1640625 103.7109375 C-52.40377303 95.796223 -60.47807476 85.26408059 -63.87890625 71.90234375 C-66.63031913 54.53028434 -63.32068487 37.82300991 -57.4140625 21.5234375 C-57.0840625 21.5234375 -56.7540625 21.5234375 -56.4140625 21.5234375 C-56.37667969 22.50183594 -56.33929688 23.48023438 -56.30078125 24.48828125 C-55.68336974 36.8001931 -54.03802403 45.25267886 -45.4140625 54.5234375 C-42.37880764 56.54694074 -41.21980048 56.84467768 -37.7265625 57.1484375 C-36.91832031 57.22320312 -36.11007812 57.29796875 -35.27734375 57.375 C-34.66246094 57.42398438 -34.04757812 57.47296875 -33.4140625 57.5234375 C-33.4140625 56.8634375 -33.4140625 56.2034375 -33.4140625 55.5234375 C-32.5271875 55.0284375 -31.6403125 54.5334375 -30.7265625 54.0234375 C-25.23040712 50.55423304 -23.43239128 44.04501353 -21.1015625 38.2734375 C-18.85459048 26.01722647 -20.40513575 14.93221677 -27.4140625 4.5234375 C-31.26891059 1.34995481 -35.46478994 0.00629336 -40.4140625 -0.4765625 C-30.82194972 -8.355798 -10.02114118 -6.12943586 0 0 Z " fill="#030100" transform="translate(362.4140625,388.4765625)"/>
<path d="M0 0 C12.46527162 6.60482164 20.43698347 15.75499159 24.85742188 29.13867188 C30.53118263 48.21449282 34.33647261 71.45120625 24.50195312 89.64648438 C17.3674627 101.2376404 4.42872757 108.99585126 -8.45507812 112.82617188 C-18.51805628 113.99628561 -26.76348255 113.22095953 -35.14257812 107.13867188 C-42.27301722 100.52997222 -47.67801843 93.26482912 -51.14257812 84.13867188 C-51.14257812 83.14867187 -51.14257812 82.15867187 -51.14257812 81.13867188 C-51.80257813 81.13867188 -52.46257812 81.13867188 -53.14257812 81.13867188 C-59.19865646 58.39233002 -55.43530958 38.17397988 -44.59960938 17.34570312 C-43.00291596 14.92711926 -41.32633354 13.04234643 -39.14257812 11.13867188 C-38.48257812 11.13867188 -37.82257813 11.13867188 -37.14257812 11.13867188 C-37.61783693 12.78563791 -38.09789703 14.43121916 -38.58007812 16.07617188 C-38.84691406 16.99269531 -39.11375 17.90921875 -39.38867188 18.85351562 C-40.14257812 21.13867188 -40.14257812 21.13867188 -41.14257812 22.13867188 C-41.89737028 34.49994007 -42.19236864 45.2030825 -34.01757812 55.20117188 C-31.01835974 58.5034201 -28.93700165 59.25922952 -24.51757812 59.70117188 C-23.7003125 59.78496094 -22.88304687 59.86875 -22.04101562 59.95507812 C-21.10128906 60.04595703 -21.10128906 60.04595703 -20.14257812 60.13867188 C-20.14257812 59.47867188 -20.14257812 58.81867188 -20.14257812 58.13867188 C-19.25570312 57.66429687 -18.36882812 57.18992187 -17.45507812 56.70117188 C-12.12513863 53.36680214 -9.99711739 46.52995665 -8.52148438 40.67382812 C-7.08304514 31.04963162 -7.44300317 20.61292805 -12.36132812 12.00585938 C-16.03005326 7.13460767 -20.31505246 5.49842786 -26.14257812 4.13867188 C-25.48257812 3.80867188 -24.82257813 3.47867187 -24.14257812 3.13867188 C-24.14257812 2.47867187 -24.14257812 1.81867188 -24.14257812 1.13867188 C-17.09782098 -2.2055319 -7.34958141 -2.95457192 0 0 Z " fill="#030101" transform="translate(499.142578125,383.861328125)"/>
<path d="M0 0 C1.99102393 0.7613544 3.9694767 1.55602435 5.9375 2.375 C6.95714844 2.79523438 7.97679688 3.21546875 9.02734375 3.6484375 C12 5 12 5 14.44140625 6.4765625 C20.56393298 10.12203643 27.45049089 12.32449243 34.12695312 14.75 C35.46880388 15.24497665 36.8061031 15.7524949 38.13818359 16.27319336 C39.80289933 16.92305682 41.48459259 17.52903484 43.16796875 18.12890625 C47.34123052 20.88613713 49.00615614 24.55715666 51.25 28.9375 C51.683125 29.74896484 52.11625 30.56042969 52.5625 31.39648438 C53.72770078 33.58842843 54.87236883 35.78853171 56 38 C56.39541992 38.68521729 56.79083984 39.37043457 57.19824219 40.07641602 C58 42 58 42 57 45 C56.02160156 44.43152344 55.04320312 43.86304688 54.03515625 43.27734375 C51.32307624 41.72651158 48.58589915 40.24702285 45.80859375 38.81640625 C45.09123047 38.44580078 44.37386719 38.07519531 43.63476562 37.69335938 C42.16841559 36.93867789 40.69964574 36.18867994 39.22851562 35.44335938 C34.63647356 33.05847344 30.85693765 30.45479249 27 27 C27 28.65 27 30.3 27 32 C27.66 32 28.32 32 29 32 C29.2928186 32.80497925 29.2928186 32.80497925 29.59155273 33.6262207 C35.75166906 50.44910726 43.16477857 66.38079295 51.19140625 82.37548828 C60.10889454 100.17033615 68.30338068 118.14052232 71 138 C67.63332107 137.44008325 66.30042019 136.63301539 64.3125 133.875 C61.05868276 129.31801666 58.29447371 124.47798739 55.46923828 119.64990234 C52.58812681 114.79795063 49.33452904 110.46538969 45.70703125 106.13671875 C44.19507238 104.24417527 43.01622355 102.43996612 41.875 100.3125 C40.35700294 97.6307052 39.01430484 95.75982956 37 93.5 C34.59126467 90.79693042 32.83704011 88.06252095 31.11328125 84.86328125 C29.81702395 82.69375587 28.32656248 80.78765164 26.75 78.8125 C23.23596528 74.39935191 20.14647596 69.77516923 17.05078125 65.0625 C14.39693795 61.09942735 11.58499238 57.26407425 8.765625 53.41796875 C3 45.52212389 3 45.52212389 3 43 C2.34 42.67 1.68 42.34 1 42 C-3.18493741 36.68713236 -6.68877366 30.98446237 -9.875 25.03125 C-10.8818101 23.21339844 -12.02717149 21.47391665 -13.1875 19.75 C-15.43594625 16.33856431 -17.10696784 13.7424498 -16.8515625 9.58203125 C-15.71070531 6.12282664 -14.08623378 5.21087184 -11.0625 3.25 C-10.16660156 2.65703125 -9.27070312 2.0640625 -8.34765625 1.453125 C-4.87661473 -0.69533997 -3.8829149 -1.22902698 0 0 Z " fill="#A52B00" transform="translate(87,495)"/>
<path d="M0 0 C7.67918297 1.91887232 14.41648883 5.80030849 20.64746094 10.59716797 C20.11958106 16.10096477 18.07845928 20.09383958 15.45996094 24.84716797 C15.05358398 25.60006104 14.64720703 26.3529541 14.22851562 27.12866211 C11.61550189 31.93625566 8.86959497 36.64553425 5.99902344 41.30419922 C3.65295304 45.28438224 1.64863935 49.43542526 -0.35253906 53.59716797 C-1.01253906 53.59716797 -1.67253906 53.59716797 -2.35253906 53.59716797 C-2.70058594 54.825 -2.70058594 54.825 -3.05566406 56.07763672 C-4.62853231 60.34617373 -6.7624614 64.02292767 -9.10253906 67.90966797 C-9.55064941 68.66368896 -9.99875977 69.41770996 -10.46044922 70.19458008 C-13.21051681 74.79208572 -16.08566654 79.27274405 -19.12207031 83.68701172 C-20.77652469 86.25535519 -22.04983051 88.9571838 -23.36425781 91.71044922 C-24.35033365 93.59295763 -25.45565297 95.20978212 -26.72753906 96.90966797 C-29.44467143 100.57655786 -31.53870509 104.48589555 -33.68457031 108.50732422 C-35.84388135 112.50735941 -38.10901275 116.44392416 -40.38208008 120.37988281 C-43.03108717 124.98370075 -45.5186679 129.65836778 -47.93066406 134.39013672 C-49.46451319 136.77097397 -50.99954633 138.05364496 -53.35253906 139.59716797 C-53.68253906 139.26716797 -54.01253906 138.93716797 -54.35253906 138.59716797 C-54.33691406 136.62841797 -54.33691406 136.62841797 -54.10253906 134.09716797 C-54.03550781 133.28248047 -53.96847656 132.46779297 -53.89941406 131.62841797 C-53.30734553 128.34666668 -52.33702916 125.38335059 -51.24853516 122.23779297 C-50.23269708 119.24397698 -49.30213237 116.23048739 -48.37988281 113.20654297 C-48.03763672 112.08505859 -47.69539062 110.96357422 -47.34277344 109.80810547 C-46.63626942 107.48542435 -45.93055038 105.16250433 -45.22558594 102.83935547 C-44.88462891 101.72302734 -44.54367187 100.60669922 -44.19238281 99.45654297 C-43.88679443 98.45075195 -43.58120605 97.44496094 -43.26635742 96.40869141 C-42.40230895 93.7502938 -41.42312961 91.1783987 -40.35253906 88.59716797 C-39.69253906 88.59716797 -39.03253906 88.59716797 -38.35253906 88.59716797 C-38.24683594 87.92169922 -38.14113281 87.24623047 -38.03222656 86.55029297 C-37.21142666 82.98405891 -35.88043394 79.71317984 -34.47753906 76.34716797 C-32.21602235 70.82044289 -30.1519499 65.29530228 -28.35253906 59.59716797 C-27.69253906 59.59716797 -27.03253906 59.59716797 -26.35253906 59.59716797 C-26.1140625 58.39189453 -25.87558594 57.18662109 -25.62988281 55.94482422 C-24.19420687 49.49122727 -22.03643933 43.28920025 -19.91503906 37.03466797 C-19.32239258 35.26446289 -19.32239258 35.26446289 -18.71777344 33.45849609 C-16.70062783 27.46076033 -14.60828487 21.50901556 -12.35253906 15.59716797 C-12.02253906 14.60716797 -11.69253906 13.61716797 -11.35253906 12.59716797 C-11.75601563 12.98646484 -12.15949219 13.37576172 -12.57519531 13.77685547 C-17.06755717 17.91631416 -21.83904 21.41069897 -26.91503906 24.78466797 C-27.53967041 25.20022949 -28.16430176 25.61579102 -28.80786133 26.04394531 C-32.9023449 28.73063124 -37.07949552 31.20492351 -41.35253906 33.59716797 C-40.55753862 29.98433264 -39.29490526 26.61276422 -37.97753906 23.15966797 C-37.55730469 22.04720703 -37.13707031 20.93474609 -36.70410156 19.78857422 C-35.35253906 16.59716797 -35.35253906 16.59716797 -33.78222656 14.01123047 C-31.85354303 10.7546009 -31.11442154 7.44940375 -30.19628906 3.80419922 C-27.06875793 -4.37661139 -7.03923891 -1.20534913 0 0 Z " fill="#A52B00" transform="translate(716.3525390625,495.40283203125)"/>
<path d="M0 0 C1.04325439 0.009104 2.08650879 0.01820801 3.16137695 0.02758789 C24.86203337 0.66598957 40.5798303 12.7257855 55.375 27.625 C56.41527344 29.04039062 56.41527344 29.04039062 57.4765625 30.484375 C59.14282217 32.80931208 59.14282217 32.80931208 61.48828125 33 C62.21402344 32.87625 62.93976563 32.7525 63.6875 32.625 C64.76451172 32.4703125 64.76451172 32.4703125 65.86328125 32.3125 C68.51501919 31.65433391 68.51501919 31.65433391 71.42578125 30.26953125 C76.5123169 28.0141612 81.88783349 26.74659604 87.25 25.3125 C100.68638705 21.63316282 113.71255694 17.47475982 126.375 11.625 C128.13867536 10.83792697 129.90980571 10.06737598 131.6875 9.3125 C132.88826172 8.79236328 132.88826172 8.79236328 134.11328125 8.26171875 C136.63849722 7.5508203 137.93323549 7.75892792 140.375 8.625 C139.63636719 9.42421875 138.89773438 10.2234375 138.13671875 11.046875 C137.11193381 12.1562081 136.08719798 13.26558658 135.0625 14.375 C134.25522461 15.24886353 134.25522461 15.24886353 133.43164062 16.14038086 C130.70456529 19.09431377 127.98152377 22.05173963 125.26953125 25.01953125 C124.78202393 25.55288086 124.2945166 26.08623047 123.79223633 26.63574219 C122.44403626 28.11191094 121.09698691 29.58913042 119.75 31.06640625 C115.29134446 35.86972759 115.29134446 35.86972759 113.375 37.625 C112.715 37.625 112.055 37.625 111.375 37.625 C111.375 38.285 111.375 38.945 111.375 39.625 C105.1372721 45.41785201 97.67525208 46.60598718 89.5625 48.375 C86.92991541 48.96930146 84.29910231 49.57115958 81.66796875 50.171875 C79.92809692 50.55617676 79.92809692 50.55617676 78.15307617 50.94824219 C75.4391533 51.50008616 75.4391533 51.50008616 73.375 52.625 C72.90976937 54.52033342 72.90976937 54.52033342 72.75 56.6875 C72.62625 57.986875 72.5025 59.28625 72.375 60.625 C70.26254025 58.63591484 68.70172002 56.72456832 67.24609375 54.21875 C66.66057739 53.23430908 66.66057739 53.23430908 66.06323242 52.22998047 C65.65049072 51.53533691 65.23774902 50.84069336 64.8125 50.125 C60.95952401 43.78657913 56.86446505 38.39922335 51.69921875 33.0546875 C49.375 30.625 49.375 30.625 47 27.62109375 C44.14977749 24.367938 41.27136421 22.17062583 37.6875 19.8125 C37.10677734 19.41869141 36.52605469 19.02488281 35.92773438 18.61914062 C33.78791236 17.17692533 31.68540862 15.78020431 29.375 14.625 C29.375 13.965 29.375 13.305 29.375 12.625 C28.4159375 12.4703125 28.4159375 12.4703125 27.4375 12.3125 C24.09971696 11.56320177 20.97140157 10.49491112 17.75390625 9.34375 C4.06093113 5.20662779 -10.76016306 7.36710307 -23.3125 13.8125 C-29.24976206 17.2164351 -34.4773429 21.13127979 -39.625 25.625 C-40.87410156 26.69234375 -40.87410156 26.69234375 -42.1484375 27.78125 C-54.47146518 38.54968034 -65.05893284 51.49186835 -73.3828125 65.60546875 C-74.625 67.625 -74.625 67.625 -76.625 68.625 C-78.62460012 68.664992 -80.62547242 68.66846799 -82.625 68.625 C-82.625 65.30328105 -82.16158751 64.54079765 -80.38671875 61.8515625 C-79.90178955 61.11550781 -79.41686035 60.37945313 -78.91723633 59.62109375 C-78.38767334 58.83863281 -77.85811035 58.05617188 -77.3125 57.25 C-76.77069092 56.44433594 -76.22888184 55.63867188 -75.6706543 54.80859375 C-70.77478914 47.64175928 -65.39851958 41.0916929 -59.625 34.625 C-58.90054687 33.76777344 -58.17609375 32.91054688 -57.4296875 32.02734375 C-42.8629902 15.068698 -23.27481229 -0.26057443 0 0 Z " fill="#A62B00" transform="translate(491.625,517.375)"/>
<path d="M0 0 C6.64848672 4.86536767 12.81599764 10.21701732 18.80859375 15.86328125 C19.41058594 16.41242187 20.01257813 16.9615625 20.6328125 17.52734375 C30.36682879 26.7394897 38.40889162 38.76372805 45.80859375 49.86328125 C45.80859375 50.85328125 45.80859375 51.84328125 45.80859375 52.86328125 C38.61488677 53.47291743 38.61488677 53.47291743 35.24609375 50.92578125 C33.97329893 49.32662878 32.70402002 47.72405405 31.4765625 46.08984375 C15.28873145 24.69731765 -6.45974909 3.18149644 -34.19140625 -1.13671875 C-54.17412625 -2.96956831 -72.62956657 2.67576959 -88.16601562 15.4921875 C-96.51950285 22.74973617 -105.03090099 30.62252337 -111.19140625 39.86328125 C-112.18140625 39.86328125 -113.17140625 39.86328125 -114.19140625 39.86328125 C-113.25295002 35.18826055 -110.77466376 32.16939546 -107.94140625 28.42578125 C-107.40636475 27.71856934 -106.87132324 27.01135742 -106.32006836 26.28271484 C-79.71499324 -8.14647235 -39.78750162 -26.63863327 0 0 Z " fill="#0B0300" transform="translate(347.19140625,533.13671875)"/>
<path d="M0 0 C5.03532421 1.48320057 9.39423152 4.25987036 12.46875 8.546875 C13.51184004 10.53611362 14.32732199 12.49926138 15.08203125 14.61328125 C15.49453125 15.64453125 15.90703125 16.67578125 16.33203125 17.73828125 C18.58772291 29.39268814 17.4128117 40.95106838 11.08203125 51.17578125 C9.21407019 53.45235879 7.60279489 55.10082307 5.08203125 56.61328125 C4.42203125 56.61328125 3.76203125 56.61328125 3.08203125 56.61328125 C3.08203125 57.27328125 3.08203125 57.93328125 3.08203125 58.61328125 C-0.8374577 59.09321867 -4.39720313 59.46208067 -7.93359375 57.48828125 C-15.32864303 51.31502272 -17.58492054 45.11578149 -18.59375 35.703125 C-18.70740038 34.34029738 -18.81547073 32.97699298 -18.91796875 31.61328125 C-18.97001465 30.9495752 -19.02206055 30.28586914 -19.07568359 29.60205078 C-19.65549567 21.09325617 -19.50944575 14.3420078 -13.91796875 7.61328125 C-10.01108627 3.13994246 -6.27206459 -0.63091774 0 0 Z " fill="#FAFAFA" transform="translate(325.91796875,387.38671875)"/>
<path d="M0 0 C5.51562338 2.75781169 9.6293688 6.66662492 11.9765625 12.375 C15.55173125 23.86900046 15.16467398 35.48460132 9.86328125 46.32421875 C7.93147066 49.71859887 6.68348622 51.63547402 3.1875 53.5 C2.1046875 53.7475 2.1046875 53.7475 1 54 C1 54.66 1 55.32 1 56 C-2.86069296 56.47273791 -6.4228267 56.78392046 -9.98046875 55.015625 C-15.79354435 50.44729186 -18.70617697 43.88146908 -21 37 C-21.86912095 27.46484411 -22.45342594 17.23616726 -17 9 C-16.34 7.88625 -15.68 6.7725 -15 5.625 C-10.68276764 -0.04136747 -7.00242552 -1.08574194 0 0 Z " fill="#FAFAFA" transform="translate(478,388)"/>
<path d="M0 0 C1.04325439 0.009104 2.08650879 0.01820801 3.16137695 0.02758789 C23.86519967 0.63666417 39.59130386 11.65399038 53.81396484 25.96875 C57.97244515 30.38087549 61.64576488 35.17259184 65.22070312 40.06201172 C66.24667554 41.45124087 67.3158371 42.80833969 68.390625 44.16015625 C72.50686915 49.61321801 73.13695573 53.86617045 72.375 60.625 C70.26254025 58.63591484 68.70172002 56.72456832 67.24609375 54.21875 C66.66057739 53.23430908 66.66057739 53.23430908 66.06323242 52.22998047 C65.65049072 51.53533691 65.23774902 50.84069336 64.8125 50.125 C60.95952401 43.78657913 56.86446505 38.39922335 51.69921875 33.0546875 C49.375 30.625 49.375 30.625 47 27.62109375 C44.14977749 24.367938 41.27136421 22.17062583 37.6875 19.8125 C37.10677734 19.41869141 36.52605469 19.02488281 35.92773438 18.61914062 C33.78791236 17.17692533 31.68540862 15.78020431 29.375 14.625 C29.375 13.965 29.375 13.305 29.375 12.625 C28.4159375 12.4703125 28.4159375 12.4703125 27.4375 12.3125 C24.09971696 11.56320177 20.97140157 10.49491112 17.75390625 9.34375 C4.06093113 5.20662779 -10.76016306 7.36710307 -23.3125 13.8125 C-29.24976206 17.2164351 -34.4773429 21.13127979 -39.625 25.625 C-40.87410156 26.69234375 -40.87410156 26.69234375 -42.1484375 27.78125 C-54.47146518 38.54968034 -65.05893284 51.49186835 -73.3828125 65.60546875 C-74.625 67.625 -74.625 67.625 -76.625 68.625 C-78.62460012 68.664992 -80.62547242 68.66846799 -82.625 68.625 C-82.625 65.30328105 -82.16158751 64.54079765 -80.38671875 61.8515625 C-79.90178955 61.11550781 -79.41686035 60.37945313 -78.91723633 59.62109375 C-78.38767334 58.83863281 -77.85811035 58.05617188 -77.3125 57.25 C-76.77069092 56.44433594 -76.22888184 55.63867188 -75.6706543 54.80859375 C-70.77478914 47.64175928 -65.39851958 41.0916929 -59.625 34.625 C-58.90054687 33.76777344 -58.17609375 32.91054688 -57.4296875 32.02734375 C-42.8629902 15.068698 -23.27481229 -0.26057443 0 0 Z " fill="#0D0400" transform="translate(491.625,517.375)"/>
<path d="M0 0 C3.91590353 0.95418685 7.83020907 1.91465012 11.74316406 2.88085938 C13.07347242 3.20841949 14.40419901 3.53428604 15.73535156 3.85839844 C17.65279471 4.32557816 19.56860753 4.79943318 21.484375 5.2734375 C23.21252441 5.69761963 23.21252441 5.69761963 24.97558594 6.13037109 C27.55492183 6.87202386 29.64666961 7.74937868 32 9 C33.5737452 9.32190243 35.15947079 9.58775131 36.75 9.8125 C44.39482602 11.08836649 51.654499 13.58529327 59 16 C58.64808594 16.46148438 58.29617187 16.92296875 57.93359375 17.3984375 C54.33572105 22.15176278 50.96176429 26.99775679 47.7109375 31.99609375 C46 34 46 34 44.23828125 34.89453125 C39.59580179 35.11328683 35.17846996 33.35865205 30.76171875 32.078125 C27.20498359 30.99897977 27.20498359 30.99897977 24.33203125 30.484375 C16.52619033 28.77123469 13.13120763 22.32758972 9 16 C8.14473119 14.72252237 7.28925844 13.44518125 6.43359375 12.16796875 C0 2.4344279 0 2.4344279 0 0 Z " fill="#A62B00" transform="translate(189,535)"/>
<path d="M0 0 C11.55 0 23.1 0 35 0 C33.32431536 4.18921161 31.75185378 7.12166004 29.1875 10.75 C28.52105469 11.71421875 27.85460937 12.6784375 27.16796875 13.671875 C24.04798622 17.02234273 21.72507006 16.93704124 17.32421875 17.09765625 C16.45410156 17.08605469 15.58398438 17.07445312 14.6875 17.0625 C13.80449219 17.05347656 12.92148437 17.04445313 12.01171875 17.03515625 C11.34785156 17.02355469 10.68398438 17.01195312 10 17 C9.69707031 16.443125 9.39414062 15.88625 9.08203125 15.3125 C8.66308594 14.549375 8.24414062 13.78625 7.8125 13 C7.40644531 12.2575 7.00039063 11.515 6.58203125 10.75 C4.48684678 7.10800034 2.22687615 3.56300184 0 0 Z " fill="#A32A00" transform="translate(383,569)"/>
<path d="M0 0 C0 0.33 0 0.66 0 1 C-5.61 1 -11.22 1 -17 1 C-17 1.66 -17 2.32 -17 3 C-19.54093855 3.64881448 -22.08268273 4.29412899 -24.625 4.9375 C-25.33785156 5.11990234 -26.05070312 5.30230469 -26.78515625 5.49023438 C-30.83969313 6.51316799 -34.85947059 7.37957367 -39 8 C-28.37596029 -1.07969309 -13.09656365 -0.64059279 0 0 Z " fill="#BE3A00" transform="translate(313,531)"/>
<path d="M0 0 C1.7492214 -0.08142927 3.49954542 -0.13938541 5.25 -0.1875 C6.22453125 -0.22230469 7.1990625 -0.25710938 8.203125 -0.29296875 C11 0 11 0 15 3 C8.73 3 2.46 3 -4 3 C-2.68 2.67 -1.36 2.34 0 2 C0 1.34 0 0.68 0 0 Z " fill="#C43C00" transform="translate(488,515)"/>
<path d="M0 0 C0.33 0 0.66 0 1 0 C0.26684469 9.16444132 -4.63459699 13.95644321 -11 20 C-11.99 19.67 -12.98 19.34 -14 19 C-13.49210938 18.63390625 -12.98421875 18.2678125 -12.4609375 17.890625 C-6.146388 12.92412539 -3.16420902 7.29925491 0 0 Z " fill="#CD4100" transform="translate(526,466)"/>
<path d="M0 0 C1.18239258 0.01353516 1.18239258 0.01353516 2.38867188 0.02734375 C4.32174666 0.05077496 6.2546638 0.08664162 8.1875 0.125 C8.5175 0.785 8.8475 1.445 9.1875 2.125 C8.13949219 2.11339844 7.09148437 2.10179687 6.01171875 2.08984375 C4.63281428 2.08046345 3.25390789 2.0713635 1.875 2.0625 C1.18470703 2.05412109 0.49441406 2.04574219 -0.21679688 2.03710938 C-3.3608025 2.02192094 -5.80670019 2.12306673 -8.8125 3.125 C-8.8125 4.115 -8.8125 5.105 -8.8125 6.125 C-11.1225 5.795 -13.4325 5.465 -15.8125 5.125 C-15.1525 4.795 -14.4925 4.465 -13.8125 4.125 C-13.8125 3.465 -13.8125 2.805 -13.8125 2.125 C-9.18433267 -0.23082065 -5.05715865 -0.11021469 0 0 Z " fill="#5F2E11" transform="translate(488.8125,382.875)"/>
<path d="M0 0 C-0.44876616 1.64846769 -0.90930488 3.29373455 -1.375 4.9375 C-1.63023437 5.85402344 -1.88546875 6.77054687 -2.1484375 7.71484375 C-3 10 -3 10 -5 11 C-5.33 10.34 -5.66 9.68 -6 9 C-6.66 9 -7.32 9 -8 9 C-6.68994234 5.06982701 -4.75047804 0 0 0 Z " fill="#2C1609" transform="translate(462,395)"/>
<path d="M0 0 C0.33 0.99 0.66 1.98 1 3 C-0.36328125 5.15625 -0.36328125 5.15625 -2.3125 7.5 C-4.33850236 9.96572295 -6.22692978 12.34039467 -8 15 C-8.66 15 -9.32 15 -10 15 C-8.37815499 11.41486894 -6.20743761 8.41007677 -3.875 5.25 C-3.15054687 4.26515625 -2.42609375 3.2803125 -1.6796875 2.265625 C-1.12539063 1.51796875 -0.57109375 0.7703125 0 0 Z " fill="#D03F00" transform="translate(433,561)"/>
<path d="M0 0 C-5.445 2.475 -5.445 2.475 -11 5 C-11.66 4.34 -12.32 3.68 -13 3 C-11.5903653 2.29819469 -10.17192359 1.61406042 -8.75 0.9375 C-7.96109375 0.55464844 -7.1721875 0.17179688 -6.359375 -0.22265625 C-4 -1 -4 -1 0 0 Z " fill="#C83D00" transform="translate(482,527)"/>
<path d="M0 0 C0.33 0 0.66 0 1 0 C1 2.64 1 5.28 1 8 C-0.98 8.99 -0.98 8.99 -3 10 C-2.01 6.7 -1.02 3.4 0 0 Z " fill="#351302" transform="translate(305,410)"/>
<path d="M0 0 C2.93200474 2.85276137 5.64315404 5.65079784 8 9 C4.63704165 7.55873214 2.37072898 5.79407345 0 3 C0 2.01 0 1.02 0 0 Z " fill="#DC4400" transform="translate(537,543)"/>
<path d="M0 0 C0.97791242 2.64036353 1.03638105 3.87266632 0.25 6.625 C-1 9 -1 9 -4 11 C-2.7874262 7.27566618 -1.49140021 3.62197194 0 0 Z " fill="#C74000" transform="translate(381,470)"/>
<path d="M0 0 C-0.99 3.3 -1.98 6.6 -3 10 C-4 6 -4 6 -3 4 C-3.66 3.67 -4.32 3.34 -5 3 C-2.25 0 -2.25 0 0 0 Z " fill="#644F44" transform="translate(462,395)"/>
</svg>
